# xmcd CD database file
#
# Track frame offsets:
#	150
#	15447
#	28055
#	48300
#	62245
#	73495
#	90172
#	105297
#	118477
#	129510
#	146882
#	160457
#	176920
#	192945
#	210930
#	227775
#	240692
#	260067
#	275845
#	293095
#	308752
#
# Disc length: 4367 seconds
#
# Revision: 0
# Processed by: cddbd v1.5.2PL0 Copyright (c) Steve Scherf et al.
# Submitted via: CDex 1.51
#
DISCID=3f110d15
DTITLE=Big Tom - Big'n'Blue
DYEAR=1995
DGENRE=Blues
TTITLE0=Police Dog Blues
TTITLE1=I Got a Woman
TTITLE2=Big Tom's Blues
TTITLE3=I Get the Blues When it Rains
TTITLE4=Glory of Love
TTITLE5=St. James Infirmary
TTITLE6=Mailbag Blues
TTITLE7=Walk On
TTITLE8=Martin
TTITLE9=You've Got a Friend
TTITLE10=All's Well That Ends Well
TTITLE11=Pallet On The Floor
TTITLE12=Boleen Blues
TTITLE13=Hesitation Blues
TTITLE14=CC Rider
TTITLE15=I was Born With the Blues
TTITLE16=Bye Bye Baby
TTITLE17=It Hurts Me Too
TTITLE18=Midnight Rider
TTITLE19=Proud Mary
TTITLE20=Wonderful Tonite
EXTD=YEAR: 1995
EXTT0=
EXTT1=
EXTT2=
EXTT3=
EXTT4=
EXTT5=
EXTT6=
EXTT7=
EXTT8=
EXTT9=
EXTT10=
EXTT11=
EXTT12=
EXTT13=
EXTT14=
EXTT15=
EXTT16=
EXTT17=
EXTT18=
EXTT19=
EXTT20=
PLAYORDER=
